<?xml version="1.0" encoding="utf-8" standalone="no"?>
<!DOCTYPE svg PUBLIC "-//W3C//DTD SVG 1.1//EN"
  "http://www.w3.org/Graphics/SVG/1.1/DTD/svg11.dtd">
<svg height="288pt" version="1.1" viewBox="0 0 432 288" width="432pt" xmlns="http://www.w3.org/2000/svg" xmlns:xlink="http://www.w3.org/1999/xlink">
 <metadata>
  <rdf:RDF xmlns:cc="http://creativecommons.org/ns#" xmlns:dc="http://purl.org/dc/elements/1.1/" xmlns:rdf="http://www.w3.org/1999/02/22-rdf-syntax-ns#">
   <cc:Work>
    <dc:type rdf:resource="http://purl.org/dc/dcmitype/StillImage"/>
    <dc:date>2022-04-23T12:40:25.620103</dc:date>
    <dc:format>image/svg+xml</dc:format>
    <dc:creator>
     <cc:Agent>
      <dc:title>Matplotlib v3.4.2, https://matplotlib.org/</dc:title>
     </cc:Agent>
    </dc:creator>
   </cc:Work>
  </rdf:RDF>
 </metadata>
 <defs>
  <style type="text/css">*{stroke-linecap:butt;stroke-linejoin:round;}</style>
 </defs>
 <g id="figure_1">
  <g id="patch_1">
   <path d="M 0 288 
L 432 288 
L 432 0 
L 0 0 
z
" style="fill:none;"/>
  </g>
  <g id="axes_1">
   <g id="patch_2">
    <path d="M 54 252 
L 388.8 252 
L 388.8 34.56 
L 54 34.56 
z
" style="fill:#ffffff;"/>
   </g>
   <g id="PathCollection_1">
    <defs>
     <path d="M 0 0.866025 
C 0.229673 0.866025 0.449969 0.774776 0.612372 0.612372 
C 0.774776 0.449969 0.866025 0.229673 0.866025 0 
C 0.866025 -0.229673 0.774776 -0.449969 0.612372 -0.612372 
C 0.449969 -0.774776 0.229673 -0.866025 0 -0.866025 
C -0.229673 -0.866025 -0.449969 -0.774776 -0.612372 -0.612372 
C -0.774776 -0.449969 -0.866025 -0.229673 -0.866025 0 
C -0.866025 0.229673 -0.774776 0.449969 -0.612372 0.612372 
C -0.449969 0.774776 -0.229673 0.866025 0 0.866025 
z
" id="md2c3f9f64e" style="stroke:#1f77b4;"/>
    </defs>
    <g clip-path="url(#p37149c97d4)">
     <use style="fill:#1f77b4;stroke:#1f77b4;" x="69.218182" xlink:href="#md2c3f9f64e" y="242.116364"/>
     <use style="fill:#1f77b4;stroke:#1f77b4;" x="73.276364" xlink:href="#md2c3f9f64e" y="242.116364"/>
     <use style="fill:#1f77b4;stroke:#1f77b4;" x="77.334545" xlink:href="#md2c3f9f64e" y="234.622389"/>
     <use style="fill:#1f77b4;stroke:#1f77b4;" x="81.392727" xlink:href="#md2c3f9f64e" y="234.622389"/>
     <use style="fill:#1f77b4;stroke:#1f77b4;" x="85.450909" xlink:href="#md2c3f9f64e" y="226.444668"/>
     <use style="fill:#1f77b4;stroke:#1f77b4;" x="89.509091" xlink:href="#md2c3f9f64e" y="226.444668"/>
     <use style="fill:#1f77b4;stroke:#1f77b4;" x="93.567273" xlink:href="#md2c3f9f64e" y="218.189576"/>
     <use style="fill:#1f77b4;stroke:#1f77b4;" x="97.625455" xlink:href="#md2c3f9f64e" y="218.189576"/>
     <use style="fill:#1f77b4;stroke:#1f77b4;" x="101.683636" xlink:href="#md2c3f9f64e" y="215.426095"/>
     <use style="fill:#1f77b4;stroke:#1f77b4;" x="105.741818" xlink:href="#md2c3f9f64e" y="215.426095"/>
     <use style="fill:#1f77b4;stroke:#1f77b4;" x="109.8" xlink:href="#md2c3f9f64e" y="210.345065"/>
     <use style="fill:#1f77b4;stroke:#1f77b4;" x="113.858182" xlink:href="#md2c3f9f64e" y="210.345065"/>
     <use style="fill:#1f77b4;stroke:#1f77b4;" x="117.916364" xlink:href="#md2c3f9f64e" y="203.992891"/>
     <use style="fill:#1f77b4;stroke:#1f77b4;" x="121.974545" xlink:href="#md2c3f9f64e" y="203.992891"/>
     <use style="fill:#1f77b4;stroke:#1f77b4;" x="126.032727" xlink:href="#md2c3f9f64e" y="198.194856"/>
     <use style="fill:#1f77b4;stroke:#1f77b4;" x="130.090909" xlink:href="#md2c3f9f64e" y="198.194856"/>
     <use style="fill:#1f77b4;stroke:#1f77b4;" x="134.149091" xlink:href="#md2c3f9f64e" y="196.211996"/>
     <use style="fill:#1f77b4;stroke:#1f77b4;" x="138.207273" xlink:href="#md2c3f9f64e" y="196.211996"/>
     <use style="fill:#1f77b4;stroke:#1f77b4;" x="142.265455" xlink:href="#md2c3f9f64e" y="194.413992"/>
     <use style="fill:#1f77b4;stroke:#1f77b4;" x="146.323636" xlink:href="#md2c3f9f64e" y="194.413992"/>
     <use style="fill:#1f77b4;stroke:#1f77b4;" x="150.381818" xlink:href="#md2c3f9f64e" y="189.145361"/>
     <use style="fill:#1f77b4;stroke:#1f77b4;" x="154.44" xlink:href="#md2c3f9f64e" y="189.145361"/>
     <use style="fill:#1f77b4;stroke:#1f77b4;" x="158.498182" xlink:href="#md2c3f9f64e" y="186.139003"/>
     <use style="fill:#1f77b4;stroke:#1f77b4;" x="162.556364" xlink:href="#md2c3f9f64e" y="186.139003"/>
     <use style="fill:#1f77b4;stroke:#1f77b4;" x="166.614545" xlink:href="#md2c3f9f64e" y="183.450852"/>
     <use style="fill:#1f77b4;stroke:#1f77b4;" x="170.672727" xlink:href="#md2c3f9f64e" y="183.450852"/>
     <use style="fill:#1f77b4;stroke:#1f77b4;" x="174.730909" xlink:href="#md2c3f9f64e" y="181.997227"/>
     <use style="fill:#1f77b4;stroke:#1f77b4;" x="178.789091" xlink:href="#md2c3f9f64e" y="181.997227"/>
     <use style="fill:#1f77b4;stroke:#1f77b4;" x="182.847273" xlink:href="#md2c3f9f64e" y="180.568174"/>
     <use style="fill:#1f77b4;stroke:#1f77b4;" x="186.905455" xlink:href="#md2c3f9f64e" y="180.568174"/>
     <use style="fill:#1f77b4;stroke:#1f77b4;" x="190.963636" xlink:href="#md2c3f9f64e" y="178.523136"/>
     <use style="fill:#1f77b4;stroke:#1f77b4;" x="195.021818" xlink:href="#md2c3f9f64e" y="178.523136"/>
     <use style="fill:#1f77b4;stroke:#1f77b4;" x="199.08" xlink:href="#md2c3f9f64e" y="170.105006"/>
     <use style="fill:#1f77b4;stroke:#1f77b4;" x="203.138182" xlink:href="#md2c3f9f64e" y="170.105006"/>
     <use style="fill:#1f77b4;stroke:#1f77b4;" x="207.196364" xlink:href="#md2c3f9f64e" y="163.971981"/>
     <use style="fill:#1f77b4;stroke:#1f77b4;" x="211.254545" xlink:href="#md2c3f9f64e" y="163.971981"/>
     <use style="fill:#1f77b4;stroke:#1f77b4;" x="215.312727" xlink:href="#md2c3f9f64e" y="150.012124"/>
     <use style="fill:#1f77b4;stroke:#1f77b4;" x="219.370909" xlink:href="#md2c3f9f64e" y="150.012124"/>
     <use style="fill:#1f77b4;stroke:#1f77b4;" x="223.429091" xlink:href="#md2c3f9f64e" y="136.547876"/>
     <use style="fill:#1f77b4;stroke:#1f77b4;" x="227.487273" xlink:href="#md2c3f9f64e" y="136.547876"/>
     <use style="fill:#1f77b4;stroke:#1f77b4;" x="231.545455" xlink:href="#md2c3f9f64e" y="122.588019"/>
     <use style="fill:#1f77b4;stroke:#1f77b4;" x="235.603636" xlink:href="#md2c3f9f64e" y="122.588019"/>
     <use style="fill:#1f77b4;stroke:#1f77b4;" x="239.661818" xlink:href="#md2c3f9f64e" y="116.454994"/>
     <use style="fill:#1f77b4;stroke:#1f77b4;" x="243.72" xlink:href="#md2c3f9f64e" y="116.454994"/>
     <use style="fill:#1f77b4;stroke:#1f77b4;" x="247.778182" xlink:href="#md2c3f9f64e" y="108.036864"/>
     <use style="fill:#1f77b4;stroke:#1f77b4;" x="251.836364" xlink:href="#md2c3f9f64e" y="108.036864"/>
     <use style="fill:#1f77b4;stroke:#1f77b4;" x="255.894545" xlink:href="#md2c3f9f64e" y="105.991826"/>
     <use style="fill:#1f77b4;stroke:#1f77b4;" x="259.952727" xlink:href="#md2c3f9f64e" y="105.991826"/>
     <use style="fill:#1f77b4;stroke:#1f77b4;" x="264.010909" xlink:href="#md2c3f9f64e" y="104.562773"/>
     <use style="fill:#1f77b4;stroke:#1f77b4;" x="268.069091" xlink:href="#md2c3f9f64e" y="104.562773"/>
     <use style="fill:#1f77b4;stroke:#1f77b4;" x="272.127273" xlink:href="#md2c3f9f64e" y="103.109148"/>
     <use style="fill:#1f77b4;stroke:#1f77b4;" x="276.185455" xlink:href="#md2c3f9f64e" y="103.109148"/>
     <use style="fill:#1f77b4;stroke:#1f77b4;" x="280.243636" xlink:href="#md2c3f9f64e" y="100.420997"/>
     <use style="fill:#1f77b4;stroke:#1f77b4;" x="284.301818" xlink:href="#md2c3f9f64e" y="100.420997"/>
     <use style="fill:#1f77b4;stroke:#1f77b4;" x="288.36" xlink:href="#md2c3f9f64e" y="97.414639"/>
     <use style="fill:#1f77b4;stroke:#1f77b4;" x="292.418182" xlink:href="#md2c3f9f64e" y="97.414639"/>
     <use style="fill:#1f77b4;stroke:#1f77b4;" x="296.476364" xlink:href="#md2c3f9f64e" y="92.146008"/>
     <use style="fill:#1f77b4;stroke:#1f77b4;" x="300.534545" xlink:href="#md2c3f9f64e" y="92.146008"/>
     <use style="fill:#1f77b4;stroke:#1f77b4;" x="304.592727" xlink:href="#md2c3f9f64e" y="90.348004"/>
     <use style="fill:#1f77b4;stroke:#1f77b4;" x="308.650909" xlink:href="#md2c3f9f64e" y="90.348004"/>
     <use style="fill:#1f77b4;stroke:#1f77b4;" x="312.709091" xlink:href="#md2c3f9f64e" y="88.365144"/>
     <use style="fill:#1f77b4;stroke:#1f77b4;" x="316.767273" xlink:href="#md2c3f9f64e" y="88.365144"/>
     <use style="fill:#1f77b4;stroke:#1f77b4;" x="320.825455" xlink:href="#md2c3f9f64e" y="82.567109"/>
     <use style="fill:#1f77b4;stroke:#1f77b4;" x="324.883636" xlink:href="#md2c3f9f64e" y="82.567109"/>
     <use style="fill:#1f77b4;stroke:#1f77b4;" x="328.941818" xlink:href="#md2c3f9f64e" y="76.214935"/>
     <use style="fill:#1f77b4;stroke:#1f77b4;" x="333" xlink:href="#md2c3f9f64e" y="76.214935"/>
     <use style="fill:#1f77b4;stroke:#1f77b4;" x="337.058182" xlink:href="#md2c3f9f64e" y="71.133905"/>
     <use style="fill:#1f77b4;stroke:#1f77b4;" x="341.116364" xlink:href="#md2c3f9f64e" y="71.133905"/>
     <use style="fill:#1f77b4;stroke:#1f77b4;" x="345.174545" xlink:href="#md2c3f9f64e" y="68.370424"/>
     <use style="fill:#1f77b4;stroke:#1f77b4;" x="349.232727" xlink:href="#md2c3f9f64e" y="68.370424"/>
     <use style="fill:#1f77b4;stroke:#1f77b4;" x="353.290909" xlink:href="#md2c3f9f64e" y="60.115332"/>
     <use style="fill:#1f77b4;stroke:#1f77b4;" x="357.349091" xlink:href="#md2c3f9f64e" y="60.115332"/>
     <use style="fill:#1f77b4;stroke:#1f77b4;" x="361.407273" xlink:href="#md2c3f9f64e" y="51.937611"/>
     <use style="fill:#1f77b4;stroke:#1f77b4;" x="365.465455" xlink:href="#md2c3f9f64e" y="51.937611"/>
     <use style="fill:#1f77b4;stroke:#1f77b4;" x="369.523636" xlink:href="#md2c3f9f64e" y="44.443636"/>
     <use style="fill:#1f77b4;stroke:#1f77b4;" x="373.581818" xlink:href="#md2c3f9f64e" y="44.443636"/>
    </g>
   </g>
   <g id="matplotlib.axis_1">
    <g id="xtick_1">
     <g id="line2d_1">
      <defs>
       <path d="M 0 0 
L 0 3.5 
" id="m6129654354" style="stroke:#000000;stroke-width:0.8;"/>
      </defs>
      <g>
       <use style="stroke:#000000;stroke-width:0.8;" x="69.218182" xlink:href="#m6129654354" y="252"/>
      </g>
     </g>
     <g id="text_1">
      <!-- 0 -->
      <g transform="translate(66.036932 266.598437)scale(0.1 -0.1)">
       <defs>
        <path d="M 2034 4250 
Q 1547 4250 1301 3770 
Q 1056 3291 1056 2328 
Q 1056 1369 1301 889 
Q 1547 409 2034 409 
Q 2525 409 2770 889 
Q 3016 1369 3016 2328 
Q 3016 3291 2770 3770 
Q 2525 4250 2034 4250 
z
M 2034 4750 
Q 2819 4750 3233 4129 
Q 3647 3509 3647 2328 
Q 3647 1150 3233 529 
Q 2819 -91 2034 -91 
Q 1250 -91 836 529 
Q 422 1150 422 2328 
Q 422 3509 836 4129 
Q 1250 4750 2034 4750 
z
" id="DejaVuSans-30" transform="scale(0.015625)"/>
       </defs>
       <use xlink:href="#DejaVuSans-30"/>
      </g>
     </g>
    </g>
    <g id="xtick_2">
     <g id="line2d_2">
      <g>
       <use style="stroke:#000000;stroke-width:0.8;" x="109.8" xlink:href="#m6129654354" y="252"/>
      </g>
     </g>
     <g id="text_2">
      <!-- 10 -->
      <g transform="translate(103.4375 266.598437)scale(0.1 -0.1)">
       <defs>
        <path d="M 794 531 
L 1825 531 
L 1825 4091 
L 703 3866 
L 703 4441 
L 1819 4666 
L 2450 4666 
L 2450 531 
L 3481 531 
L 3481 0 
L 794 0 
L 794 531 
z
" id="DejaVuSans-31" transform="scale(0.015625)"/>
       </defs>
       <use xlink:href="#DejaVuSans-31"/>
       <use x="63.623047" xlink:href="#DejaVuSans-30"/>
      </g>
     </g>
    </g>
    <g id="xtick_3">
     <g id="line2d_3">
      <g>
       <use style="stroke:#000000;stroke-width:0.8;" x="150.381818" xlink:href="#m6129654354" y="252"/>
      </g>
     </g>
     <g id="text_3">
      <!-- 20 -->
      <g transform="translate(144.019318 266.598437)scale(0.1 -0.1)">
       <defs>
        <path d="M 1228 531 
L 3431 531 
L 3431 0 
L 469 0 
L 469 531 
Q 828 903 1448 1529 
Q 2069 2156 2228 2338 
Q 2531 2678 2651 2914 
Q 2772 3150 2772 3378 
Q 2772 3750 2511 3984 
Q 2250 4219 1831 4219 
Q 1534 4219 1204 4116 
Q 875 4013 500 3803 
L 500 4441 
Q 881 4594 1212 4672 
Q 1544 4750 1819 4750 
Q 2544 4750 2975 4387 
Q 3406 4025 3406 3419 
Q 3406 3131 3298 2873 
Q 3191 2616 2906 2266 
Q 2828 2175 2409 1742 
Q 1991 1309 1228 531 
z
" id="DejaVuSans-32" transform="scale(0.015625)"/>
       </defs>
       <use xlink:href="#DejaVuSans-32"/>
       <use x="63.623047" xlink:href="#DejaVuSans-30"/>
      </g>
     </g>
    </g>
    <g id="xtick_4">
     <g id="line2d_4">
      <g>
       <use style="stroke:#000000;stroke-width:0.8;" x="190.963636" xlink:href="#m6129654354" y="252"/>
      </g>
     </g>
     <g id="text_4">
      <!-- 30 -->
      <g transform="translate(184.601136 266.598437)scale(0.1 -0.1)">
       <defs>
        <path d="M 2597 2516 
Q 3050 2419 3304 2112 
Q 3559 1806 3559 1356 
Q 3559 666 3084 287 
Q 2609 -91 1734 -91 
Q 1441 -91 1130 -33 
Q 819 25 488 141 
L 488 750 
Q 750 597 1062 519 
Q 1375 441 1716 441 
Q 2309 441 2620 675 
Q 2931 909 2931 1356 
Q 2931 1769 2642 2001 
Q 2353 2234 1838 2234 
L 1294 2234 
L 1294 2753 
L 1863 2753 
Q 2328 2753 2575 2939 
Q 2822 3125 2822 3475 
Q 2822 3834 2567 4026 
Q 2313 4219 1838 4219 
Q 1578 4219 1281 4162 
Q 984 4106 628 3988 
L 628 4550 
Q 988 4650 1302 4700 
Q 1616 4750 1894 4750 
Q 2613 4750 3031 4423 
Q 3450 4097 3450 3541 
Q 3450 3153 3228 2886 
Q 3006 2619 2597 2516 
z
" id="DejaVuSans-33" transform="scale(0.015625)"/>
       </defs>
       <use xlink:href="#DejaVuSans-33"/>
       <use x="63.623047" xlink:href="#DejaVuSans-30"/>
      </g>
     </g>
    </g>
    <g id="xtick_5">
     <g id="line2d_5">
      <g>
       <use style="stroke:#000000;stroke-width:0.8;" x="231.545455" xlink:href="#m6129654354" y="252"/>
      </g>
     </g>
     <g id="text_5">
      <!-- 40 -->
      <g transform="translate(225.182955 266.598437)scale(0.1 -0.1)">
       <defs>
        <path d="M 2419 4116 
L 825 1625 
L 2419 1625 
L 2419 4116 
z
M 2253 4666 
L 3047 4666 
L 3047 1625 
L 3713 1625 
L 3713 1100 
L 3047 1100 
L 3047 0 
L 2419 0 
L 2419 1100 
L 313 1100 
L 313 1709 
L 2253 4666 
z
" id="DejaVuSans-34" transform="scale(0.015625)"/>
       </defs>
       <use xlink:href="#DejaVuSans-34"/>
       <use x="63.623047" xlink:href="#DejaVuSans-30"/>
      </g>
     </g>
    </g>
    <g id="xtick_6">
     <g id="line2d_6">
      <g>
       <use style="stroke:#000000;stroke-width:0.8;" x="272.127273" xlink:href="#m6129654354" y="252"/>
      </g>
     </g>
     <g id="text_6">
      <!-- 50 -->
      <g transform="translate(265.764773 266.598437)scale(0.1 -0.1)">
       <defs>
        <path d="M 691 4666 
L 3169 4666 
L 3169 4134 
L 1269 4134 
L 1269 2991 
Q 1406 3038 1543 3061 
Q 1681 3084 1819 3084 
Q 2600 3084 3056 2656 
Q 3513 2228 3513 1497 
Q 3513 744 3044 326 
Q 2575 -91 1722 -91 
Q 1428 -91 1123 -41 
Q 819 9 494 109 
L 494 744 
Q 775 591 1075 516 
Q 1375 441 1709 441 
Q 2250 441 2565 725 
Q 2881 1009 2881 1497 
Q 2881 1984 2565 2268 
Q 2250 2553 1709 2553 
Q 1456 2553 1204 2497 
Q 953 2441 691 2322 
L 691 4666 
z
" id="DejaVuSans-35" transform="scale(0.015625)"/>
       </defs>
       <use xlink:href="#DejaVuSans-35"/>
       <use x="63.623047" xlink:href="#DejaVuSans-30"/>
      </g>
     </g>
    </g>
    <g id="xtick_7">
     <g id="line2d_7">
      <g>
       <use style="stroke:#000000;stroke-width:0.8;" x="312.709091" xlink:href="#m6129654354" y="252"/>
      </g>
     </g>
     <g id="text_7">
      <!-- 60 -->
      <g transform="translate(306.346591 266.598437)scale(0.1 -0.1)">
       <defs>
        <path d="M 2113 2584 
Q 1688 2584 1439 2293 
Q 1191 2003 1191 1497 
Q 1191 994 1439 701 
Q 1688 409 2113 409 
Q 2538 409 2786 701 
Q 3034 994 3034 1497 
Q 3034 2003 2786 2293 
Q 2538 2584 2113 2584 
z
M 3366 4563 
L 3366 3988 
Q 3128 4100 2886 4159 
Q 2644 4219 2406 4219 
Q 1781 4219 1451 3797 
Q 1122 3375 1075 2522 
Q 1259 2794 1537 2939 
Q 1816 3084 2150 3084 
Q 2853 3084 3261 2657 
Q 3669 2231 3669 1497 
Q 3669 778 3244 343 
Q 2819 -91 2113 -91 
Q 1303 -91 875 529 
Q 447 1150 447 2328 
Q 447 3434 972 4092 
Q 1497 4750 2381 4750 
Q 2619 4750 2861 4703 
Q 3103 4656 3366 4563 
z
" id="DejaVuSans-36" transform="scale(0.015625)"/>
       </defs>
       <use xlink:href="#DejaVuSans-36"/>
       <use x="63.623047" xlink:href="#DejaVuSans-30"/>
      </g>
     </g>
    </g>
    <g id="xtick_8">
     <g id="line2d_8">
      <g>
       <use style="stroke:#000000;stroke-width:0.8;" x="353.290909" xlink:href="#m6129654354" y="252"/>
      </g>
     </g>
     <g id="text_8">
      <!-- 70 -->
      <g transform="translate(346.928409 266.598437)scale(0.1 -0.1)">
       <defs>
        <path d="M 525 4666 
L 3525 4666 
L 3525 4397 
L 1831 0 
L 1172 0 
L 2766 4134 
L 525 4134 
L 525 4666 
z
" id="DejaVuSans-37" transform="scale(0.015625)"/>
       </defs>
       <use xlink:href="#DejaVuSans-37"/>
       <use x="63.623047" xlink:href="#DejaVuSans-30"/>
      </g>
     </g>
    </g>
    <g id="text_9">
     <!-- Index $i$ -->
     <g transform="translate(204.55 280.276563)scale(0.1 -0.1)">
      <defs>
       <path d="M 628 4666 
L 1259 4666 
L 1259 0 
L 628 0 
L 628 4666 
z
" id="DejaVuSans-49" transform="scale(0.015625)"/>
       <path d="M 3513 2113 
L 3513 0 
L 2938 0 
L 2938 2094 
Q 2938 2591 2744 2837 
Q 2550 3084 2163 3084 
Q 1697 3084 1428 2787 
Q 1159 2491 1159 1978 
L 1159 0 
L 581 0 
L 581 3500 
L 1159 3500 
L 1159 2956 
Q 1366 3272 1645 3428 
Q 1925 3584 2291 3584 
Q 2894 3584 3203 3211 
Q 3513 2838 3513 2113 
z
" id="DejaVuSans-6e" transform="scale(0.015625)"/>
       <path d="M 2906 2969 
L 2906 4863 
L 3481 4863 
L 3481 0 
L 2906 0 
L 2906 525 
Q 2725 213 2448 61 
Q 2172 -91 1784 -91 
Q 1150 -91 751 415 
Q 353 922 353 1747 
Q 353 2572 751 3078 
Q 1150 3584 1784 3584 
Q 2172 3584 2448 3432 
Q 2725 3281 2906 2969 
z
M 947 1747 
Q 947 1113 1208 752 
Q 1469 391 1925 391 
Q 2381 391 2643 752 
Q 2906 1113 2906 1747 
Q 2906 2381 2643 2742 
Q 2381 3103 1925 3103 
Q 1469 3103 1208 2742 
Q 947 2381 947 1747 
z
" id="DejaVuSans-64" transform="scale(0.015625)"/>
       <path d="M 3597 1894 
L 3597 1613 
L 953 1613 
Q 991 1019 1311 708 
Q 1631 397 2203 397 
Q 2534 397 2845 478 
Q 3156 559 3463 722 
L 3463 178 
Q 3153 47 2828 -22 
Q 2503 -91 2169 -91 
Q 1331 -91 842 396 
Q 353 884 353 1716 
Q 353 2575 817 3079 
Q 1281 3584 2069 3584 
Q 2775 3584 3186 3129 
Q 3597 2675 3597 1894 
z
M 3022 2063 
Q 3016 2534 2758 2815 
Q 2500 3097 2075 3097 
Q 1594 3097 1305 2825 
Q 1016 2553 972 2059 
L 3022 2063 
z
" id="DejaVuSans-65" transform="scale(0.015625)"/>
       <path d="M 3513 3500 
L 2247 1797 
L 3578 0 
L 2900 0 
L 1881 1375 
L 863 0 
L 184 0 
L 1544 1831 
L 300 3500 
L 978 3500 
L 1906 2253 
L 2834 3500 
L 3513 3500 
z
" id="DejaVuSans-78" transform="scale(0.015625)"/>
       <path id="DejaVuSans-20" transform="scale(0.015625)"/>
       <path d="M 1172 4863 
L 1747 4863 
L 1606 4134 
L 1031 4134 
L 1172 4863 
z
M 909 3500 
L 1484 3500 
L 800 0 
L 225 0 
L 909 3500 
z
" id="DejaVuSans-Oblique-69" transform="scale(0.015625)"/>
      </defs>
      <use transform="translate(0 0.015625)" xlink:href="#DejaVuSans-49"/>
      <use transform="translate(29.492188 0.015625)" xlink:href="#DejaVuSans-6e"/>
      <use transform="translate(92.871094 0.015625)" xlink:href="#DejaVuSans-64"/>
      <use transform="translate(156.347656 0.015625)" xlink:href="#DejaVuSans-65"/>
      <use transform="translate(217.871094 0.015625)" xlink:href="#DejaVuSans-78"/>
      <use transform="translate(277.050781 0.015625)" xlink:href="#DejaVuSans-20"/>
      <use transform="translate(308.837891 0.015625)" xlink:href="#DejaVuSans-Oblique-69"/>
     </g>
    </g>
   </g>
   <g id="matplotlib.axis_2">
    <g id="ytick_1">
     <g id="line2d_9">
      <defs>
       <path d="M 0 0 
L -3.5 0 
" id="m11193bc0a3" style="stroke:#000000;stroke-width:0.8;"/>
      </defs>
      <g>
       <use style="stroke:#000000;stroke-width:0.8;" x="54" xlink:href="#m11193bc0a3" y="251.14013"/>
      </g>
     </g>
     <g id="text_10">
      <!-- −3 -->
      <g transform="translate(32.257812 254.939348)scale(0.1 -0.1)">
       <defs>
        <path d="M 678 2272 
L 4684 2272 
L 4684 1741 
L 678 1741 
L 678 2272 
z
" id="DejaVuSans-2212" transform="scale(0.015625)"/>
       </defs>
       <use xlink:href="#DejaVuSans-2212"/>
       <use x="83.789062" xlink:href="#DejaVuSans-33"/>
      </g>
     </g>
    </g>
    <g id="ytick_2">
     <g id="line2d_10">
      <g>
       <use style="stroke:#000000;stroke-width:0.8;" x="54" xlink:href="#m11193bc0a3" y="215.186753"/>
      </g>
     </g>
     <g id="text_11">
      <!-- −2 -->
      <g transform="translate(32.257812 218.985972)scale(0.1 -0.1)">
       <use xlink:href="#DejaVuSans-2212"/>
       <use x="83.789062" xlink:href="#DejaVuSans-32"/>
      </g>
     </g>
    </g>
    <g id="ytick_3">
     <g id="line2d_11">
      <g>
       <use style="stroke:#000000;stroke-width:0.8;" x="54" xlink:href="#m11193bc0a3" y="179.233377"/>
      </g>
     </g>
     <g id="text_12">
      <!-- −1 -->
      <g transform="translate(32.257812 183.032595)scale(0.1 -0.1)">
       <use xlink:href="#DejaVuSans-2212"/>
       <use x="83.789062" xlink:href="#DejaVuSans-31"/>
      </g>
     </g>
    </g>
    <g id="ytick_4">
     <g id="line2d_12">
      <g>
       <use style="stroke:#000000;stroke-width:0.8;" x="54" xlink:href="#m11193bc0a3" y="143.28"/>
      </g>
     </g>
     <g id="text_13">
      <!-- 0 -->
      <g transform="translate(40.6375 147.079219)scale(0.1 -0.1)">
       <use xlink:href="#DejaVuSans-30"/>
      </g>
     </g>
    </g>
    <g id="ytick_5">
     <g id="line2d_13">
      <g>
       <use style="stroke:#000000;stroke-width:0.8;" x="54" xlink:href="#m11193bc0a3" y="107.326623"/>
      </g>
     </g>
     <g id="text_14">
      <!-- 1 -->
      <g transform="translate(40.6375 111.125842)scale(0.1 -0.1)">
       <use xlink:href="#DejaVuSans-31"/>
      </g>
     </g>
    </g>
    <g id="ytick_6">
     <g id="line2d_14">
      <g>
       <use style="stroke:#000000;stroke-width:0.8;" x="54" xlink:href="#m11193bc0a3" y="71.373247"/>
      </g>
     </g>
     <g id="text_15">
      <!-- 2 -->
      <g transform="translate(40.6375 75.172466)scale(0.1 -0.1)">
       <use xlink:href="#DejaVuSans-32"/>
      </g>
     </g>
    </g>
    <g id="ytick_7">
     <g id="line2d_15">
      <g>
       <use style="stroke:#000000;stroke-width:0.8;" x="54" xlink:href="#m11193bc0a3" y="35.41987"/>
      </g>
     </g>
     <g id="text_16">
      <!-- 3 -->
      <g transform="translate(40.6375 39.219089)scale(0.1 -0.1)">
       <use xlink:href="#DejaVuSans-33"/>
      </g>
     </g>
    </g>
    <g id="text_17">
     <!-- Energy $E_{i}$ -->
     <g transform="translate(26.157812 166.78)rotate(-90)scale(0.1 -0.1)">
      <defs>
       <path d="M 628 4666 
L 3578 4666 
L 3578 4134 
L 1259 4134 
L 1259 2753 
L 3481 2753 
L 3481 2222 
L 1259 2222 
L 1259 531 
L 3634 531 
L 3634 0 
L 628 0 
L 628 4666 
z
" id="DejaVuSans-45" transform="scale(0.015625)"/>
       <path d="M 2631 2963 
Q 2534 3019 2420 3045 
Q 2306 3072 2169 3072 
Q 1681 3072 1420 2755 
Q 1159 2438 1159 1844 
L 1159 0 
L 581 0 
L 581 3500 
L 1159 3500 
L 1159 2956 
Q 1341 3275 1631 3429 
Q 1922 3584 2338 3584 
Q 2397 3584 2469 3576 
Q 2541 3569 2628 3553 
L 2631 2963 
z
" id="DejaVuSans-72" transform="scale(0.015625)"/>
       <path d="M 2906 1791 
Q 2906 2416 2648 2759 
Q 2391 3103 1925 3103 
Q 1463 3103 1205 2759 
Q 947 2416 947 1791 
Q 947 1169 1205 825 
Q 1463 481 1925 481 
Q 2391 481 2648 825 
Q 2906 1169 2906 1791 
z
M 3481 434 
Q 3481 -459 3084 -895 
Q 2688 -1331 1869 -1331 
Q 1566 -1331 1297 -1286 
Q 1028 -1241 775 -1147 
L 775 -588 
Q 1028 -725 1275 -790 
Q 1522 -856 1778 -856 
Q 2344 -856 2625 -561 
Q 2906 -266 2906 331 
L 2906 616 
Q 2728 306 2450 153 
Q 2172 0 1784 0 
Q 1141 0 747 490 
Q 353 981 353 1791 
Q 353 2603 747 3093 
Q 1141 3584 1784 3584 
Q 2172 3584 2450 3431 
Q 2728 3278 2906 2969 
L 2906 3500 
L 3481 3500 
L 3481 434 
z
" id="DejaVuSans-67" transform="scale(0.015625)"/>
       <path d="M 2059 -325 
Q 1816 -950 1584 -1140 
Q 1353 -1331 966 -1331 
L 506 -1331 
L 506 -850 
L 844 -850 
Q 1081 -850 1212 -737 
Q 1344 -625 1503 -206 
L 1606 56 
L 191 3500 
L 800 3500 
L 1894 763 
L 2988 3500 
L 3597 3500 
L 2059 -325 
z
" id="DejaVuSans-79" transform="scale(0.015625)"/>
       <path d="M 1081 4666 
L 4031 4666 
L 3928 4134 
L 1606 4134 
L 1338 2753 
L 3566 2753 
L 3463 2222 
L 1234 2222 
L 909 531 
L 3284 531 
L 3181 0 
L 172 0 
L 1081 4666 
z
" id="DejaVuSans-Oblique-45" transform="scale(0.015625)"/>
      </defs>
      <use transform="translate(0 0.09375)" xlink:href="#DejaVuSans-45"/>
      <use transform="translate(63.183594 0.09375)" xlink:href="#DejaVuSans-6e"/>
      <use transform="translate(126.5625 0.09375)" xlink:href="#DejaVuSans-65"/>
      <use transform="translate(188.085938 0.09375)" xlink:href="#DejaVuSans-72"/>
      <use transform="translate(229.199219 0.09375)" xlink:href="#DejaVuSans-67"/>
      <use transform="translate(292.675781 0.09375)" xlink:href="#DejaVuSans-79"/>
      <use transform="translate(351.855469 0.09375)" xlink:href="#DejaVuSans-20"/>
      <use transform="translate(383.642578 0.09375)" xlink:href="#DejaVuSans-Oblique-45"/>
      <use transform="translate(446.826172 -16.3125)scale(0.7)" xlink:href="#DejaVuSans-Oblique-69"/>
     </g>
    </g>
   </g>
   <g id="patch_3">
    <path d="M 54 252 
L 54 34.56 
" style="fill:none;stroke:#000000;stroke-linecap:square;stroke-linejoin:miter;stroke-width:0.8;"/>
   </g>
   <g id="patch_4">
    <path d="M 388.8 252 
L 388.8 34.56 
" style="fill:none;stroke:#000000;stroke-linecap:square;stroke-linejoin:miter;stroke-width:0.8;"/>
   </g>
   <g id="patch_5">
    <path d="M 54 252 
L 388.8 252 
" style="fill:none;stroke:#000000;stroke-linecap:square;stroke-linejoin:miter;stroke-width:0.8;"/>
   </g>
   <g id="patch_6">
    <path d="M 54 34.56 
L 388.8 34.56 
" style="fill:none;stroke:#000000;stroke-linecap:square;stroke-linejoin:miter;stroke-width:0.8;"/>
   </g>
   <g id="patch_7">
    <path clip-path="url(#p37149c97d4)" d="M 182.847273 154.066013 
L 264.010909 154.066013 
L 264.010909 132.493987 
L 182.847273 132.493987 
z
" style="fill:none;opacity:0.5;stroke:#000000;stroke-linejoin:miter;"/>
   </g>
   <g id="patch_8">
    <path d="M 254.88 219.384 
Q 218.863636 186.725006 182.847273 154.066013 
" style="fill:none;opacity:0.5;stroke:#000000;stroke-linecap:round;"/>
   </g>
   <g id="patch_9">
    <path d="M 372.06 143.28 
Q 318.035455 137.886994 264.010909 132.493987 
" style="fill:none;opacity:0.5;stroke:#000000;stroke-linecap:round;"/>
   </g>
   <g id="axes_2">
    <g id="patch_10">
     <path d="M 254.88 219.384 
L 372.06 219.384 
L 372.06 143.28 
L 254.88 143.28 
z
" style="fill:#ffffff;"/>
    </g>
    <g id="PathCollection_2">
     <g clip-path="url(#p9594daf281)">
      <use style="fill:#1f77b4;stroke:#1f77b4;" x="90.828" xlink:href="#md2c3f9f64e" y="530.017035"/>
      <use style="fill:#1f77b4;stroke:#1f77b4;" x="96.687" xlink:href="#md2c3f9f64e" y="530.017035"/>
      <use style="fill:#1f77b4;stroke:#1f77b4;" x="102.546" xlink:href="#md2c3f9f64e" y="503.579026"/>
      <use style="fill:#1f77b4;stroke:#1f77b4;" x="108.405" xlink:href="#md2c3f9f64e" y="503.579026"/>
      <use style="fill:#1f77b4;stroke:#1f77b4;" x="114.264" xlink:href="#md2c3f9f64e" y="474.728824"/>
      <use style="fill:#1f77b4;stroke:#1f77b4;" x="120.123" xlink:href="#md2c3f9f64e" y="474.728824"/>
      <use style="fill:#1f77b4;stroke:#1f77b4;" x="125.982" xlink:href="#md2c3f9f64e" y="445.605668"/>
      <use style="fill:#1f77b4;stroke:#1f77b4;" x="131.841" xlink:href="#md2c3f9f64e" y="445.605668"/>
      <use style="fill:#1f77b4;stroke:#1f77b4;" x="137.7" xlink:href="#md2c3f9f64e" y="435.856374"/>
      <use style="fill:#1f77b4;stroke:#1f77b4;" x="143.559" xlink:href="#md2c3f9f64e" y="435.856374"/>
      <use style="fill:#1f77b4;stroke:#1f77b4;" x="149.418" xlink:href="#md2c3f9f64e" y="417.930997"/>
      <use style="fill:#1f77b4;stroke:#1f77b4;" x="155.277" xlink:href="#md2c3f9f64e" y="417.930997"/>
      <use style="fill:#1f77b4;stroke:#1f77b4;" x="161.136" xlink:href="#md2c3f9f64e" y="395.521147"/>
      <use style="fill:#1f77b4;stroke:#1f77b4;" x="166.995" xlink:href="#md2c3f9f64e" y="395.521147"/>
      <use style="fill:#1f77b4;stroke:#1f77b4;" x="172.854" xlink:href="#md2c3f9f64e" y="375.066246"/>
      <use style="fill:#1f77b4;stroke:#1f77b4;" x="178.713" xlink:href="#md2c3f9f64e" y="375.066246"/>
      <use style="fill:#1f77b4;stroke:#1f77b4;" x="184.572" xlink:href="#md2c3f9f64e" y="368.070912"/>
      <use style="fill:#1f77b4;stroke:#1f77b4;" x="190.431" xlink:href="#md2c3f9f64e" y="368.070912"/>
      <use style="fill:#1f77b4;stroke:#1f77b4;" x="196.29" xlink:href="#md2c3f9f64e" y="361.727728"/>
      <use style="fill:#1f77b4;stroke:#1f77b4;" x="202.149" xlink:href="#md2c3f9f64e" y="361.727728"/>
      <use style="fill:#1f77b4;stroke:#1f77b4;" x="208.008" xlink:href="#md2c3f9f64e" y="343.140515"/>
      <use style="fill:#1f77b4;stroke:#1f77b4;" x="213.867" xlink:href="#md2c3f9f64e" y="343.140515"/>
      <use style="fill:#1f77b4;stroke:#1f77b4;" x="219.726" xlink:href="#md2c3f9f64e" y="332.534374"/>
      <use style="fill:#1f77b4;stroke:#1f77b4;" x="225.585" xlink:href="#md2c3f9f64e" y="332.534374"/>
      <use style="fill:#1f77b4;stroke:#1f77b4;" x="231.444" xlink:href="#md2c3f9f64e" y="323.050841"/>
      <use style="fill:#1f77b4;stroke:#1f77b4;" x="237.303" xlink:href="#md2c3f9f64e" y="323.050841"/>
      <use style="fill:#1f77b4;stroke:#1f77b4;" x="243.162" xlink:href="#md2c3f9f64e" y="317.922594"/>
      <use style="fill:#1f77b4;stroke:#1f77b4;" x="249.021" xlink:href="#md2c3f9f64e" y="317.922594"/>
      <use style="fill:#1f77b4;stroke:#1f77b4;" x="254.88" xlink:href="#md2c3f9f64e" y="312.881035"/>
      <use style="fill:#1f77b4;stroke:#1f77b4;" x="260.739" xlink:href="#md2c3f9f64e" y="312.881035"/>
      <use style="fill:#1f77b4;stroke:#1f77b4;" x="266.598" xlink:href="#md2c3f9f64e" y="305.666342"/>
      <use style="fill:#1f77b4;stroke:#1f77b4;" x="272.457" xlink:href="#md2c3f9f64e" y="305.666342"/>
      <use style="fill:#1f77b4;stroke:#1f77b4;" x="278.316" xlink:href="#md2c3f9f64e" y="275.968002"/>
      <use style="fill:#1f77b4;stroke:#1f77b4;" x="284.175" xlink:href="#md2c3f9f64e" y="275.968002"/>
      <use style="fill:#1f77b4;stroke:#1f77b4;" x="290.034" xlink:href="#md2c3f9f64e" y="254.331289"/>
      <use style="fill:#1f77b4;stroke:#1f77b4;" x="295.893" xlink:href="#md2c3f9f64e" y="254.331289"/>
      <use style="fill:#1f77b4;stroke:#1f77b4;" x="301.752" xlink:href="#md2c3f9f64e" y="205.082276"/>
      <use style="fill:#1f77b4;stroke:#1f77b4;" x="307.611" xlink:href="#md2c3f9f64e" y="205.082276"/>
      <use style="fill:#1f77b4;stroke:#1f77b4;" x="313.47" xlink:href="#md2c3f9f64e" y="157.581724"/>
      <use style="fill:#1f77b4;stroke:#1f77b4;" x="319.329" xlink:href="#md2c3f9f64e" y="157.581724"/>
      <use style="fill:#1f77b4;stroke:#1f77b4;" x="325.188" xlink:href="#md2c3f9f64e" y="108.332711"/>
      <use style="fill:#1f77b4;stroke:#1f77b4;" x="331.047" xlink:href="#md2c3f9f64e" y="108.332711"/>
      <use style="fill:#1f77b4;stroke:#1f77b4;" x="336.906" xlink:href="#md2c3f9f64e" y="86.695998"/>
      <use style="fill:#1f77b4;stroke:#1f77b4;" x="342.765" xlink:href="#md2c3f9f64e" y="86.695998"/>
      <use style="fill:#1f77b4;stroke:#1f77b4;" x="348.624" xlink:href="#md2c3f9f64e" y="56.997658"/>
      <use style="fill:#1f77b4;stroke:#1f77b4;" x="354.483" xlink:href="#md2c3f9f64e" y="56.997658"/>
      <use style="fill:#1f77b4;stroke:#1f77b4;" x="360.342" xlink:href="#md2c3f9f64e" y="49.782965"/>
      <use style="fill:#1f77b4;stroke:#1f77b4;" x="366.201" xlink:href="#md2c3f9f64e" y="49.782965"/>
      <use style="fill:#1f77b4;stroke:#1f77b4;" x="372.06" xlink:href="#md2c3f9f64e" y="44.741406"/>
      <use style="fill:#1f77b4;stroke:#1f77b4;" x="377.919" xlink:href="#md2c3f9f64e" y="44.741406"/>
      <use style="fill:#1f77b4;stroke:#1f77b4;" x="383.778" xlink:href="#md2c3f9f64e" y="39.613159"/>
      <use style="fill:#1f77b4;stroke:#1f77b4;" x="389.637" xlink:href="#md2c3f9f64e" y="39.613159"/>
      <use style="fill:#1f77b4;stroke:#1f77b4;" x="395.496" xlink:href="#md2c3f9f64e" y="30.129626"/>
      <use style="fill:#1f77b4;stroke:#1f77b4;" x="401.355" xlink:href="#md2c3f9f64e" y="30.129626"/>
      <use style="fill:#1f77b4;stroke:#1f77b4;" x="407.214" xlink:href="#md2c3f9f64e" y="19.523485"/>
      <use style="fill:#1f77b4;stroke:#1f77b4;" x="413.073" xlink:href="#md2c3f9f64e" y="19.523485"/>
      <use style="fill:#1f77b4;stroke:#1f77b4;" x="418.932" xlink:href="#md2c3f9f64e" y="0.936272"/>
      <use style="fill:#1f77b4;stroke:#1f77b4;" x="424.791" xlink:href="#md2c3f9f64e" y="0.936272"/>
      <use style="fill:#1f77b4;stroke:#1f77b4;" x="426.579474" xlink:href="#md2c3f9f64e" y="-1"/>
     </g>
    </g>
    <g id="matplotlib.axis_3">
     <g id="xtick_9">
      <g id="line2d_16">
       <g>
        <use style="stroke:#000000;stroke-width:0.8;" x="266.598" xlink:href="#m6129654354" y="219.384"/>
       </g>
      </g>
      <g id="text_18">
       <!-- 30 -->
       <g transform="translate(260.2355 233.982438)scale(0.1 -0.1)">
        <use xlink:href="#DejaVuSans-33"/>
        <use x="63.623047" xlink:href="#DejaVuSans-30"/>
       </g>
      </g>
     </g>
     <g id="xtick_10">
      <g id="line2d_17">
       <g>
        <use style="stroke:#000000;stroke-width:0.8;" x="325.188" xlink:href="#m6129654354" y="219.384"/>
       </g>
      </g>
      <g id="text_19">
       <!-- 40 -->
       <g transform="translate(318.8255 233.982438)scale(0.1 -0.1)">
        <use xlink:href="#DejaVuSans-34"/>
        <use x="63.623047" xlink:href="#DejaVuSans-30"/>
       </g>
      </g>
     </g>
    </g>
    <g id="matplotlib.axis_4">
     <g id="ytick_8">
      <g id="line2d_18">
       <g>
        <use style="stroke:#000000;stroke-width:0.8;" x="254.88" xlink:href="#m11193bc0a3" y="206.7"/>
       </g>
      </g>
      <g id="text_20">
       <!-- −0.2 -->
       <g transform="translate(223.597187 210.499219)scale(0.1 -0.1)">
        <defs>
         <path d="M 684 794 
L 1344 794 
L 1344 0 
L 684 0 
L 684 794 
z
" id="DejaVuSans-2e" transform="scale(0.015625)"/>
        </defs>
        <use xlink:href="#DejaVuSans-2212"/>
        <use x="83.789062" xlink:href="#DejaVuSans-30"/>
        <use x="147.412109" xlink:href="#DejaVuSans-2e"/>
        <use x="179.199219" xlink:href="#DejaVuSans-32"/>
       </g>
      </g>
     </g>
     <g id="ytick_9">
      <g id="line2d_19">
       <g>
        <use style="stroke:#000000;stroke-width:0.8;" x="254.88" xlink:href="#m11193bc0a3" y="181.332"/>
       </g>
      </g>
      <g id="text_21">
       <!-- 0.0 -->
       <g transform="translate(231.976875 185.131219)scale(0.1 -0.1)">
        <use xlink:href="#DejaVuSans-30"/>
        <use x="63.623047" xlink:href="#DejaVuSans-2e"/>
        <use x="95.410156" xlink:href="#DejaVuSans-30"/>
       </g>
      </g>
     </g>
     <g id="ytick_10">
      <g id="line2d_20">
       <g>
        <use style="stroke:#000000;stroke-width:0.8;" x="254.88" xlink:href="#m11193bc0a3" y="155.964"/>
       </g>
      </g>
      <g id="text_22">
       <!-- 0.2 -->
       <g transform="translate(231.976875 159.763219)scale(0.1 -0.1)">
        <use xlink:href="#DejaVuSans-30"/>
        <use x="63.623047" xlink:href="#DejaVuSans-2e"/>
        <use x="95.410156" xlink:href="#DejaVuSans-32"/>
       </g>
      </g>
     </g>
    </g>
    <g id="patch_11">
     <path d="M 254.88 219.384 
L 254.88 143.28 
" style="fill:none;stroke:#000000;stroke-linecap:square;stroke-linejoin:miter;stroke-width:0.8;"/>
    </g>
    <g id="patch_12">
     <path d="M 372.06 219.384 
L 372.06 143.28 
" style="fill:none;stroke:#000000;stroke-linecap:square;stroke-linejoin:miter;stroke-width:0.8;"/>
    </g>
    <g id="patch_13">
     <path d="M 254.88 219.384 
L 372.06 219.384 
" style="fill:none;stroke:#000000;stroke-linecap:square;stroke-linejoin:miter;stroke-width:0.8;"/>
    </g>
    <g id="patch_14">
     <path d="M 254.88 143.28 
L 372.06 143.28 
" style="fill:none;stroke:#000000;stroke-linecap:square;stroke-linejoin:miter;stroke-width:0.8;"/>
    </g>
   </g>
  </g>
 </g>
 <defs>
  <clipPath id="p37149c97d4">
   <rect height="217.44" width="334.8" x="54" y="34.56"/>
  </clipPath>
  <clipPath id="p9594daf281">
   <rect height="76.104" width="117.18" x="254.88" y="143.28"/>
  </clipPath>
 </defs>
</svg>
